#!OML:ASF E:/inclinewalkrobotboard/Project1/Captureday1/Session1/subject1.ASF
:FULLY-SPECIFIED
:DEGREES
101
root 0 0 0 -1.8213192393518014 0.6567775079048657 -2.224975531426166
lowerback 10.670424453220175 -1.8507661831797666 -0.7230324262453507
upperback 0.5293937418661472 -2.346367688767441 2.9180888513885916
thorax -5.262282496969932 -1.1169843481407256 3.794315654523292
lowerneck -17.250381811262702 -2.325234365600737 -1.5511495062938034
upperneck 19.69280499142607 -2.622433392735302 -0.7582547489493814
head 9.098494410908966 -1.4078957409778896 -0.3398833750080415
rclavicle 2.237432730021344E-15 -2.613758915920644E-15
rhumerus -32.96518621966225 -25.68482532161444 -75.35061789236119
rradius 24.109176798925752
rwrist 4.482392017171251
rhand -18.685017885133846 22.29954898981805
rfingers 7.125020000000017
rthumb 7.612227147383649 -7.633626038808959
lclavicle 9.686303920246285E-16 -2.035582669561634E-15
lhumerus -28.30728746421358 -3.152878883682898 82.46142920340515
lradius 30.305250328632056
lwrist 6.957331334997592
lhand -27.651425565886342 25.14252730111317
lfingers 7.125020000000015
lthumb -1.0440207268605688 55.11713740666969
rfemur -20.58368074276776 4.711388545210988 23.062306381500008
rtibia 33.50897334071054
rfoot -6.303707572667474 -5.100272378339926
rtoes 7.79090831991409
lfemur 9.403872269712686 -2.568454083684157 -20.020334478463262
ltibia 51.540981919963215
lfoot 13.491211140681745 -18.85743521182653
ltoes -11.861954167395513
102
root 0 0 0 -2.900248300900949 0.19727186752216586 -3.311613609064902
lowerback 11.022154680486036 -1.5428379611114527 0.3211505853186897
upperback 0.9998169721900521 -1.794287778335357 3.1118940296246977
thorax -5.053044831416496 -0.8607535455017017 3.3450290112211754
lowerneck -16.268748149703907 -2.4960275115322528 -1.5089836253186675
upperneck 22.086017028268 -2.913541599986366 -0.5961806114975141
head 9.741668525205611 -1.5214643491483215 -0.340175220710431
rclavicle 3.2287587175206838E-15 -4.262380769986076E-15
rhumerus -32.786257270127905 -25.415607392651605 -75.69151780766612
rradius 23.797331336704147
rwrist 4.754869161414912
rhand -18.516358500318905 22.387803665839574
rfingers 7.125020000000017
rthumb 7.776838760804119 -7.519861369544156
lclavicle 1.5482216657016877E-15 -4.095779999997612E-15
lhumerus -30.952093619842827 -2.428157838877893 83.49004214018096
lradius 29.66422964784519
lwrist 6.792560933885428
lhand -27.410155368955994 24.343949230482732
lfingers 7.125020000000022
lthumb -0.8119621342102006 54.31193851533546
rfemur -18.688775855807513 5.977754330327356 25.67664327403075
rtibia 30.89209587548422
rfoot -8.668016660734073 -5.6633266844677586
rtoes 10.73649725541565
lfemur -0.7047513310305638 -0.7237899217688621 -16.945204036017362
ltibia 58.591110255081176
lfoot 19.31602805503607 -21.254180385722375
ltoes -5.31316882471436
103
root 0 0 0 -3.858190127198093 -0.8794562704678313 -3.9659020826875886
lowerback 12.355207287470343 -1.019171320857358 1.3677758939510136
upperback 1.0152626998543075 -0.973041440751276 2.9371385070839926
thorax -5.882660512694873 -0.4758089019900953 2.4614759007033866
lowerneck -16.08426209866711 -2.787263059492583 -1.4998675666831631
upperneck 21.813746984420696 -3.3488606064314603 -0.40785370079795036
head 9.677328822918394 -1.7255906621606674 -0.32154480020305315
rclavicle 3.0386557010743658E-15 -5.750974142653391E-15
rhumerus -32.36116625611927 -24.25194547005634 -76.33092374296743
rradius 23.87527967614151
rwrist 4.7322851711083365
rhand -18.34954295744173 22.66709760220982
rfingers 7.125020000000019
rthumb 7.9380713908777265 -7.222080618801922
lclavicle 4.241895298060882E-17 -5.683893805244333E-15
lhumerus -32.97777491229806 -1.9714279021587704 84.33656210111137
lradius 29.149463726411316
lwrist 6.628886331978372
lhand -27.383671106265673 23.672327042186353
lfingers 7.125020000000026
lthumb -0.7808541320255795 53.651671836483644
rfemur -16.91924761124025 6.395357496855561 26.775134325871548
rtibia 30.398991410588046
rfoot -10.394177601298352 -6.094792257885658
rtoes 11.616773953823792
lfemur -13.336347704165977 3.5122022342904637 -15.024892792896866
ltibia 69.97152248480475
lfoot 10.583795910986563 -16.183965678668304
ltoes -3.675427050850576
104
root 0 0 0 -3.952802631340339 -1.8718513092194113 -4.43192972160036
lowerback 11.929831934884445 -0.4187111074961444 2.3331667677884176
upperback 0.6114235032381312 -0.09240864481678646 2.564974376876435
thorax -6.0951244320287925 -0.07143160638640766 1.3859431144273509
lowerneck -15.716180506169037 -2.8537370096235097 -1.3901987173337538
upperneck 21.730358712233315 -3.528079046684241 -0.22202542735194108
head 9.578211435099844 -1.7859652293828026 -0.2872981233492074
rclavicle 2.2474627533249946E-15 -4.304227642000238E-15
rhumerus -31.928370426447984 -23.21644000241915 -76.71327508684061
rradius 24.70186556221536
rwrist 4.118831179285249
rhand -18.401856318021693 22.819693515132187
rfingers 7.125020000000021
rthumb 7.884510805903606 -7.067795514707061
lclavicle -1.0923801488488592E-15 -4.2182636545593385E-15
lhumerus -33.383560491203696 -1.8403497273341076 84.44536287737192
lradius 29.02899973005542
lwrist 6.633700753063396
lhand -27.371445834784307 23.58474040221833
lfingers 7.125020000000025
lthumb -0.7688584533034089 53.565906532183405
rfemur -14.286377974312124 6.778722586082944 28.335207462657984
rtibia 30.194987691192118
rfoot -12.76608318041597 -6.576468746451383
rtoes 10.898715701964873
lfemur -22.603463732194722 5.381009563322893 -15.153676740760712
ltibia 67.8300525663229
lfoot 0.7028408935212234 -9.497750369309111
ltoes -0.6170326517456317
